# xmcd
#
# Track frame offsets:
#	150
#	19561
#	33665
#	48172
#	63809
#	83152
#	100617
#	116925
#	134257
#	154830
#	168964
#	186783
#	203730
#	221581
#	236243
#	253307
#	269507
#	287571
#	305568
#
# Disc length: 4272 seconds
#
# Revision: 0
# Processed by: cddbd v1.5.2PL0 Copyright (c) Steve Scherf et al.
# Submitted via: audiograbber 1.83.01
#
DISCID=1010ae13
DTITLE=Various Artist - Hott Country 210
DYEAR=2013
DGENRE=Country
TTITLE0=Brett Kissel - Started With A Song
TTITLE1=Luke Bryan - That's My Kind Of Night
TTITLE2=Jake Owen - Days Of Gold
TTITLE3=Danielle Bradbury - The Heart Of Dixie
TTITLE4=Brad Paisley - I Can't Change The Worls
TTITLE5=Emerson Drive - She Always Gets What She Wants
TTITLE6=Colt Ford Feat Jason Aldean - Drivin' Around Song
TTITLE7=Frankie Ballard - Helluva Life
TTITLE8=Bryce Pallister - Bourbon
TTITLE9=Darius Rucker - Radio
TTITLE10=Zac Brown Band - Sweet Anne
TTITLE11=Henningsens - I Miss You
TTITLE12=Jennifer Nettles - That Girl
TTITLE13=Cole Swindell - Chillin' It
TTITLE14=Tenille - Halfway To Somewhere
TTITLE15=Vince Gill Feat P Franklin - The Fightin' Side Of Me
TTITLE16=Chris Stapelton - What You Are Listening To
TTITLE17=Autumn Hill - Fire
TTITLE18=Libby McGrath - Messing Around
EXTD=August 2013
EXTT0=
EXTT1=
EXTT2=
EXTT3=
EXTT4=
EXTT5=
EXTT6=
EXTT7=
EXTT8=
EXTT9=
EXTT10=
EXTT11=
EXTT12=
EXTT13=
EXTT14=
EXTT15=
EXTT16=
EXTT17=
EXTT18=
PLAYORDER=
